<svg xmlns="http://www.w3.org/2000/svg" viewBox="0 0 163.6 206.8"><style>.st0{fill:#202020}</style><path class="st0" d="M0 179.9c-.1.1 0 .3.3.2l.2-.4-.5.2zm2.5.2c.4-.2.8-.6.5-.8-.4.4-.5.3-.8.7-.3.1-.6 0-.6-.1-.1.1-.6 0-.7.3.6.2 1.2.1 1.7-.2 0-.1-.1.1-.1.1zm32.8-12.3l-.2.1c0-.1.1-.1.2-.1zm18-12.4c-.1.1-.2.2-.1.2 0-.1.1-.2.1-.2zm3.1-2.1l-.2.1c.1 0 .1 0 .2-.1zm-21.1 14.5c.2-.1.4-.1.6-.2-.1-.2-.4.1-.6.2zM7.1 178.4c-.1 0-.2.1-.3.2l.3-.2zm19.9-5.7l-.2.1c0 .1-.1.1-.1.2l.3-.3zm-6.8 3.1c.2 0 .1-.3.1-.5 0 .1-.1.2-.3.3.1.1.2.1.2.2zm-11.3 3.3l-.2.1.2-.1zm22.8-8.9s.1 0 .1.1l-.1-.1zM149.3 10.8zm.9-8.5v.1h.2l-.2-.1zM61.9 149.2c-.2.2-.1.1 0 0zm45.4-43c-.7.3.6-1.1-.4-.5.2 0-.3 1 .4.5zm-100 72.1l.3-.1c-.2.1-.2.1-.3.1zm99.6-72.6zm-33.4 33h-.2.2zm-9 7.5l.2-.2-.2.2zm13.3-11.9l.3-.3H78c0 .2-.1.2-.2.3zm4.6-4.3h-.1l-.1.1.2-.1zm65.3-100.4c.1-.1.2-.2.3-.2-.2.1-.1-.8-.3.2zM7.1 178.5c0-.1.1-.1.2-.2l-.2.2zm69.4-46l.8-.6c-.3.1-.6.3-.8.6zm54.9-61.3l.1-.2c0 .1 0 .1-.1.2zm-52 58.6c.2 0 .4-.1.5-.2v-.1l-.5.3zM148 29.4z"/><path class="st0" d="M148.4 22.9c-.1.9.3.5.5.7 0 1.1-.3.5-.6.8.1.6.2 1.2.2 1.8-.1 0-.1.1-.2 0 .2.8-.4 2.2-.1 3.1l-.1.1c.2-.1.4-.1.5 0-.1.4.1.8-.2.9.1-.3 0-.3-.1-.4v.5c-.4.3 0-.6-.3-.7 0 .9 0 1.7-.2 2.6-.3.1.2-1.6-.3-.7l.3-1c-.7.7.1-.6-.5 0-.3 1.3-.1 1.5-.5 2.8.1.3.3 0 .4.3-.1 2-1.2 1.3-1.1 2.8.3.5.3 1.1 0 1.6l-.3-.4c-.4 1.2.3.9-.3 2.1-.1-.3.2-1 .1-.8-.5.8 0 .7-.1 1.3h-.4c-.3 1.4-.6 2.9-1 4.4-.1-.1-.1-.4-.3-.1-.5 1.9-1.3 3.8-2.3 5.6v.8c-.1.2-.2.2-.2 0-.4.6.2.1.1.5s-.4.4-.3.2c-.3 1.7-.9 3.3-1.8 4.7v-.3c-.6.9 0 1.3-.6 2.1V58c-1.1 2.1-2 4.4-3.2 5.8.2.5-1.2 1.9-.8 2.3-.7.6-1.3 1.4-1.9 2.2-.3.4 0 .8-.3 1.4l-.3-.1-.1.9-.5.2-.2.5c.1-.2.4-.3.4-.3-.3.8-1.3 1.8-1.5 1.7-.3.7-.6 1.3-.9 1.9-.1-.1.1-.4.2-.7-.3 1.1-.4 0-.7 1 .1-.1.1.2.2.2-.6.6-1.1 1.3-1.5 2.1l-.1-.3c-.9 1.3-1.8 2.8-2.8 4.3.4-.5.7-.1.4.3h-.4c0 .4.4-.4.2.3-.4.5-.6.1-.4-.2l-.4.7c-.1 0 0-.2-.1-.3 0 .4-1.1.9-1.1 1.5h-.1c-1 1.4-1.4 2.1-2.3 3.3.2.2-.2.6-.3 1.1-.7.8-1.6 1.6-2.4 2.6-.5.8 0 .4-.1.8-.2-.1-1 .9-.8.3-.9 1.2-1.2 1.6-2.3 3.2.2-.1.4-.2.4-.1-.2.3-.6.5-.7.4v-.1c-1.1 1.9-3.8 3.3-4.6 5v-.1l-1 1.5c-.6.6.2-.5-.3-.1-1 1.7-2.1 2.2-3 3.6-1.4.4-3 3.2-4.5 4.1l.2.1c-.2.4-.4.3-.7.5.1.1.4-.2.3 0-2.6 2.7-5.4 5.3-8.3 7.7-1 .9.1 1.2-1.5 2.1l.1-.6c-1.7 2.2-4.1 3.9-5.9 6 .1-.2 0-.2.2-.4-.6.2-1.6 1.4-1.4 1.6-.3.3-.2-.1-.5 0-.5.3-.9 1.2-1.2 1.2-.1 0 .1-.2.1-.3-.2.3-1.3 1.2-.9 1.1-.8.6-1.3 1.4-2.1 1.8-.2.6-1.4 1.1-1.2 1.5-.3-.4-1.6.9-1.9 1.5.1-.2-.5.3-.5 0-.5.5-1 1-.7 1.1-1.4.5-1.7 2.2-2.8 2.2-1.5 1.6-2.8 3.1-4.2 4.5-.2-.4 1.6-1.5 1.2-1.8-1 1.3-2.1 2.5-3.3 3.5-.4.3.1-.3.1-.5-1.3 1.4-2.7 2.4-3.8 3.6 0 0 .1-.2.2-.3-.2.2-.6.4-.5.6l.2-.3c.6-.1-.6 1.3-.5 1.5 0-.8-1.3 1-1.2-.2-.1.2-.3.4-.2.5-.3.2-.4.2-.3-.1-.8.8-.4.7-1.2 1.4-.1-.1.1-.2.1-.4-.3.6-.8 1.1-1.3 1.5 0-.1-.1-.1.1-.2-1.1 1-1.7 2.1-3.1 3 .1-.6-.5.3-.8 0l-.6.7.4-.1c-.6.5-1 1.2-1.6 1.5l.4-.5c-.4.3-.7.7-1.1 1l.8-.4c-.5.6.4.3-.5.9.1-.2-.6.5-1.1.6-.2.4-.6.7-1 1-.2 0-.2-.4-.3-.4-.1.5-1.4 1.2-1.6 1.8.1-.2 0-.3-.1-.3l-.1.4c-.3.2-.4.2-.5 0-.9.6.6.2-.6.8.1-.1 0-.1.2-.2-1.1.7-2 1.6-3 2.2-.5-.1.8-.7.3-.7-1.3 1.2-2.7 2.3-4.2 3.3l.3-.1c.1.6-1.2.5-1.8 1.2.2-.1.1-.4.1-.3-1.2.7-2.3 1.6-3.3 2.5l.1-.2c-.6.3-1.6.9-2.2 1.2-.1.2-.5.4-.2.5-1.1.3-2.1.8-2.9 1.5-.8.6-1.8 1.1-2.8 1.4.2-.1.5-.4.3-.3l-1.5.9c.2.1.3 0 .7 0-.2.3-.5.6-.9.7.6-.5-.2-.3-.5-.3.1 0 0 .2.1.2-1 0 .1.5-1.2.7v-.1c-.4.3-.8.5-1.2.7-.3-.2.4-.3.3-.5-.6.3-1 1-1.7 1 .2-.2.6-.4.9-.6-.4 0-.9.1-1.3.3-.4.1-.7.2-1.1.3h.3c-.5 1-1.6.8-2.5 1.6.9-.8.1-.3.1-.6-.3 0-.8.1-.7 0-.4.4-.9.2-1.5.8-.1-.1-.6.2-.5-.1-.7.3.2.1.2.2-.9.7-2.6.4-4 1.3-.8.5-1.7 1-2.6 1.4-.5 0 .2-.4.2-.4-.6 0-1.2.2-1.8.5.1-.1 0-.2-.3-.2-.5.2-.3.4-1 .5.1-.2.2-.4.4-.5-.6.2-1.1.6-1.7.8-.2-.1.3-.3.5-.5-.7.2-1.8.5-2 .8h.5c-.3.1-.2-.2 0-.3.6-.3.9-.1.9 0l-.4.1c.6.5 1.8-.5 2.7-.7H7l.8-.6c.2.1.4.2 0 .4.7 0 .5-.3 1.1-.2.1 0 0 0 0 .1l.6-.3c-.1.1.2.3-.2.3 1.2 0 1.7-.8 2.2-.6l-.1.1c1.5-.6.1-.3 1.1-1.1l1 .5.1-.3c.2 0 .5-.1.5 0 .5-.4-.1-.1.1-.4.9 0 2-.8 2.4-.4.2-.3-.8.1 0-.4.4.4.9-.4 1.7-.5-.1.3-.8.5 0 .4.2-.6 1.4-.4 1.9-.7-.1-.3 1.2-.6 2.1-1.2.9-.2 1.9-.6 2.8-.9v.1c0-.4 1-.7 1.6-1.2.1.2 0 .3-.3.6l.6-.3.6-.6v.3c.8-.6 1.7-1.1 2.6-1.5-.1-.3-1.2-.2-.1-.9.1.1.3.3 0 .5.1-.1.3-.3.5-.3l-.3.4c.5-.2.2-.3.5-.5.1.2.3 0 .4.1-.1.1-.4.1-.5.2.4-.2.8-.3 1.2-.3-.1-.1-.1-.2.2-.4.8-.5.4.1.9-.1.1-.2.7-.4.6-.7.2-.1.3 0 .5 0 .3-.3 1.9-1.1 1.3-1.1h-.1.1c1.2-1 2.8-1.6 4-2.5l.1.1c.7-.5 1.4-1.1 2.1-1.7.2-.2.6-.2.6 0 .4-.4.9-.8 1.5-1-.5.5.3 0-.5.5.7-.2 1.2-.7 1.7-1.2-.1.4.7-.1 1-.4l-.6.2c.3-.3.7-.5 1.1-.8v.4c1.7-.8 2.3-2.5 3.8-2.8.2-.5-.9.5-.7 0 .6-.3 1.2-.6 1.9-.8 1-.6.6-1.1 1.6-1.7-.2 0-.5-.2.1-.8.7-.5 1.1-.2.8.2-.2.1-.3.2-.3.1-.2.2-.4.5-.1.4v-.2c.4-.2 1.3-.9 1.2-.6.4-.5.1-.3-.3-.1 1-.6 1.3-1.1 2.3-1.7-.2.1-.4.1-.3-.1 1.4-.9.4-.6 1.3-1.4.6-.3.1.5.9-.4.6-.3.3.1.2.4.6-.6 1.3-1.1 2-1.5l-.4.4.6-.6h-.4c.3-.2.5-.3.5-.3.1-.3-.4-.1-.1-.7.4-.2.9-.9 1.2-.8-1.1.8.3.1-.5.9.2-.2.4-.4.6-.5.1 0 0 .1 0 .1 1.2-.6.2-.6 1.2-1.5 0 .2.5.1.6-.1-.4.3-.4-.1-.1-.5.7-.4.6-.7 1-1l-.4.3c0-.2.3-.5.8-.9.1.1-.3.4-.1.3.3-.7 1.3-.7 1.9-1.5.4-.2.3.2.6 0 .6-.9 1-.6 1.7-1.4-.4 0-.4.1 0-.6l-1.2 1.3.6-1c-.4.4-.7.9-1 1 .3-.5.3-.4-.1-.4.8-.2.9-1.1 1.7-1.5l.4.5c1.1-.6 1.5-1.7 2.8-2.7l-.5.3c0-.3.7-.7 1.1-1.1.1.2.4 0 .6-.1-.1-.1.9-.8.7-1.2l.7-.3c1.1-.8.7-1.4 1.7-2.2-.1.4.4.1-.1.8.3-.3.6-.5.5-.6.3-.1.7-1 1.1-1.1.1-.2 0-.4.3-.7.1 0 .1.1.1.1-.1-.1.5-.6 0-.5 1.4-.4 2.7-2.5 3.9-2.9.6-.7 1.4-1.5 2-2.1 0 .1.1.1-.1.2 1-.7.1-.9 1.2-1.6.7-.2-.4.6 0 .4.6.4 1.1-1.2 2-1.5l-.1.2c.6-.3 1-1.3 1.9-2 0 0 0 .1.1.1.6-1 1.2-1.8 2-2.6-.1.4-.3.4.1.5.3-.4-.4-.2.3-.9.3-.1.9-.5 1.2-.4l-.6.6c.6-.1.8-.8 1.2-1.1l.1.2c1-1 .7-1.3 1.8-2.3h-.2c.3-.8.6-.3 1-1.1l.5.1c.3-.4 1.1-1.6 1.7-2.3-.3.7-.8 1.4-1.2 2.1.5-.5 1-1 1.3-1.6-.1.2-.3.4-.4.5.3-.8.8-1.5 1.5-2.1.4.7 2.1-1.8 3-2 1.1-1.5 2.7-2.6 4.1-4.2-1 .2.4-.5-.1-.8.3-.4.5-.5.5-.5l1.3-.9c.4-.1-.2.4-.1.5.8-.8.5-.2 1.1-.6-.3 0 0-.5.5-.9l-.8.5c.8-1.4 1.3-.6 2.1-2l-.2.5c.5-.7 2-2.2 2.1-3.1.1-.1.4-.1.2.2 1.4-1.4 2.4-3.6 3.6-4.5v.2c.2-.3.2-.7.6-.9 0 .1 0 .2.1.1.2-.5.4-.9.8-1.2l-.1.4c1.3-1.3 1.5-2.5 2.4-3.8.3.3 1.4-.8 1.9-1.4v.1c1.1-1.6 2.1-3.2 3-4.9 1.2-.7 2.6-3.4 4-4.9-.2.2-.3-.2-.1-.6.3-.4.5-1.3.8-1l-.1.1c.5-.1 1-1 1.4-1.6l-.4-.4c1.8-1.3 2.5-4.6 3.6-5.2.1-.5.4-1 .5-1.5l.2.2c.7-1 1.3-2.1 1.8-3.2v.4c.5-.8-.2-1.4.2-2.2h.5c.7-1.5 1.8-2.7 2.1-4.4 0 .1.1.1 0 .4.3-.7 1.5-2.6.9-2.6.4.1.7-1.5.9-2.4l.2.2c-.1-.6 0-1.3.2-1.9.1-.2.3-.1.1.2.4-.7 0-.7.5-1.5v.4c.2-.4.3-.8.2-1.2.1-.5.6-1.5.9-1.5-.1-.4-.1-.8.1-1.1.1 0 .1.2.1.3.7-1.3.4-2.1 1-2.9.1 0 .2 0 .2-.1-.2.6-.4 1.2-.7 1.8.2.1.6-.7.7 0 0-1 .2-1.9.4-2.9l.1-.1v.1c.1-.2.1-.4.1-.5.1-.2.2-.4.3-.7.2 0 .4-1 .6-1.4-.3 0-.1-.6-.4-.1 0-.1 0 .1-.1.4v.2l-.3 1.1c-.1-.4 0-.8.3-1.2-.1-.3-.2-.6-.2-.7.5-.5 1.1-1.6 1.3-1.7.2-1.4.8-3.1.5-4.1 0-.4.2-.4.4-.5v.6c0-.8.5-2.3.2-2.5.4-.9.2.6.5-.7l.1.2c.5-1.1.6-2.3.5-3.5-.1-1.3.1-2.5.6-3.7-.1.2-.1.3-.2.3.8-3.3.5-6.9 1.2-10.2.1-.6 0-1.1-.3-1.6l.3-.2-.3-1c-.2-1.4.7-2.4.2-4.2l-.7.3c0-.6-.2-2 .1-1.9-.1-.1-.2-.3-.1-.4h.2l-.4-1.5c0-1.2.6.1.5-1.6-.1-.7-.6-1.8-.7-1.6 0 .3 0 .7-.2.7l-.1-.6c-.5-.1-1-.5-1.2 1l.4 1-.2.3-.1-.8c-.1.4 0 .8.2 1.1-.1.1-.2.3-.2.4l.5 1c-.2.1-.4-.4-.4.2.2.4.4-.5.6.3-.2.5-.4.4-.2.9-.1.1-.2 0-.3-.3.2.5.1 1.3.3 1.6-.2.5.1 1.7-.3 1.7.2.4.3.9.4 1.3-.5-.8-.1 1.7-.6 1.5.5.6.1 2.3.4 3.4-.1-.1-.1-.2-.1-.3l-.3 1.2c.4.1.4 1.1.6 1.6-.4.7-.4-.5-.8-.3.3 0 .2 1.3.5 1.1-.3.6-.2.5-.5.8.5.2 0 .5.3 1.1-.4.8-.5.2-.5 1.1-.4.4-.4-.4-.4-.4zm-4.1 21.6l.1-.4-.1.4zm-.6 1.8c.1-.2.2-.5.3-.8.1 0 .2.1.1.2 0 0-.2.4-.4.6zm3.1-3.1c-.1.3-.1.4-.2.4 0-.1.1-.3.1-.5.1-.1.1 0 .1.1zm-.2-.7v-.1V42.7v-.2zM35 167.9z"/><path class="st0" d="M132.4 69.4L132.5 69.4 132.5 69.2z"/><path class="st0" d="M25.5 172h-.2.2zm-4.1 1.8l-.6.2c.2-.1.4-.2.6-.2zm-3.2 1.1v.1-.1zm44.9-30s.1-.1 0 0c.3-.4.2-.2 0 0zm-12 10.8c.1-.1.2-.3.3-.4-.3.2-.4.3-.3.4z"/><path class="st0" d="M76.4 132.6L76.4 132.6 76.5 132.5z"/><path class="st0" d="M52 154.8c-.2.1-.4.3-.6.5.2-.1.4-.3.6-.5zM4.1 179h-.2.2zm-.2.1l-.2.1c.1-.1.2-.1.2-.1z"/><path class="st0" d="M3.4 179.3l.4-.1c-.2-.1-.3 0-.4.1zm5.1-1.2v-.1.1zm1.3-.4c-.4 0-.9.1-1.3.2v.1c.2-.2 1.1 0 1.3-.3zm5.9-.5l-1.1.3c.2 0 .5.1 0 .3 1.5-.2-.4-.2 1.1-.6zm3.4-1.1c-.6.3.1.1.1.2.3-.3.4-.3-.1-.2zM42 163.7l.1.2c.4-.3-.1-.1-.1-.2z"/><path class="st0" d="M45.3 159.7L44.8 159.9 44.8 160.2z"/><path class="st0" d="M48.7 159.5L48.6 159.6 49.2 159.1z"/><path class="st0" d="M81.8 131l-.3-.1c-.3.2-.1.5.3.1zm13.4-13.2c.4-.1.7-.3.8-.7-.2.3-.5.5-.8.7z"/><path class="st0" d="M132 74.9L131.9 75.3 132.2 74.7z"/><g><path class="st0" d="M163.4 27.3c.1 0 .2-.1.2-.2l-.3.1.1.1zm.2-.8c-.3 0-.5.1-.7.3.3-.1.2 0 .6-.1.1.1 0 .2-.1.2.1 0 0 .2.2.1.2-.2.1-.4-.2-.4 0-.1.1-.1.2-.1zm-4-7.3zm-2.6-4.5s.1 0 0 0zm-.2-1c.1.1.1 0 0 0zm2.8 5.5V19c-.1 0 0 .1 0 .2zm2.7 6.7h0zm-1.3-5h.2-.2zm1 1.5s-.3.1-.4.2h.2c.1-.1.1-.2.2-.2zm1.1 2.6zm-2.7-5.2s.1 0 0 0c.1 0 0 0 0 0zm-26.3 5.5z"/><path class="st0" d="M131.8 26.1L131.8 26 131.7 25.9z"/><path class="st0" d="M156.3 12.2zm-9.7-9.8c.3 0 0 .7.3.6-.1-.1 0-.8-.3-.6zm15.7 23.5s0-.1 0 0c0-.1 0 0 0 0zM146.9 3zm7.3 6.1c-.1 0-.1.1 0 0-.1.1-.1.1 0 0zm1.1 2.6c0-.1 0-.1 0 0zm-2.2-3.6s0-.1 0 0c-.1-.1-.1-.1 0 0-.1-.1 0-.1 0 0z"/><path class="st0" d="M152.3 6.8L152.2 6.9 152.3 6.9z"/><path class="st0" d="M136.8 21.6c-.1 0-.2-.1-.2-.1.1.1 0 .3.2.1zm25.6 4.3h-.1.1zM151.1 9.2V9v.2zm-8.2 3.5s.1 0 0 0zm7.7-4.3c0-.1.1-.1.1-.2h-.1v.2zm-14.1 13.1z"/><path class="st0" d="M136.1 23.2c.1-.2-.2-.3-.4-.5.1-.3.3.1.5.1 0-.2-.2-.5-.1-.6.1 0 .1 0 .1.1-.1-.3.3-.4.1-.8h.1c-.2-.1-.3-.2-.4-.3.1-.1-.1-.3.1-.2 0 0 0 .1.1.2v-.1c.3.1 0 .2.2.3 0-.2-.1-.6.1-.7.3.2-.1.4.2.4l-.3.1c.5.2-.1.1.4.3.3-.2.1-.4.4-.6-.1-.2-.2-.1-.3-.3 0-.6.9.2.7-.3-.1-.2-.5-.5-.1-.5l.3.3c.2-.2-.3-.5.1-.6.1.1 0 .3 0 .3.4 0-.1-.2 0-.4l.3.2c.2-.3.2-.7.3-1.1.1.1.1.2.3.2.2-.5.6-.8 1-1.1l-.1-.3s.2 0 .2.1c.2-.1-.1-.1-.2-.2 0-.1.2 0 .3.1 0-.4.1-1 .5-1.1v.1c.2-.1-.3-.6 0-.6v.1c.4-.4.5-1 1.1-1.1-.3-.3.5-.4 0-.7.4-.1.5 0 .9-.2.1-.1-.2-.4-.2-.5l.3.2-.2-.3.4.1v-.2h-.2c0-.3.5-.3.6-.2l.1-.6c.1.1.1.2.1.3-.1-.4.3.1.2-.2-.1 0-.1-.1-.2-.2.2 0 .4-.2.4-.5l.2.1c.2-.3.4-.7.6-1.1-.2.1-.5-.2-.4-.3l.3.1c-.1-.2-.2 0-.3-.2.1-.1.4.1.4.2v-.2c.1 0 .1.1.2.2-.1-.2.5-.1.2-.4h.1c.2-.4.2-.6.4-.9-.2-.2-.1-.2-.2-.4.2-.2.5-.3.7-.6 0-.3-.2-.2-.3-.3.2.1.4-.2.4.1.2-.3.2-.6.3-.9-.1 0-.2 0-.2-.1s.2-.1.3 0c-.1-.6 1.3-.6 1-1.3v-.5c.1-.1.1.2.3.2V5s0-.1.1-.1.1 0 0-.2c.3.3.2.3.2.2 0-.1 0-.3.1.1v-.3-.3-.2s0 .1.1.1c0 .1.1.2.1.3 0 .2 0 .3-.1.5 0 0 .7-.6.6 0l-.3.1c.7.3.7 1.1 1.3 1.5-.1 0-.2.1-.2 0-.1.2.3.4.4.3 0 .1-.1.1-.2.2 0 .2.4.1.3.3h-.1c.1 0 .2.4.4.1 0 .3.4.3.3.6.3-.1.1.4.5.2-.4.2-.1.6.2.6-.1 0 0 .2-.2.2.1.1.2.2.4.1 0 0 .1 0 .1-.1-.3.6.7.3.2.8.4.3.8.6 1.2 1-.4.2-.3-.4-.7-.1.4.3.9.3 1 .7 0 .1-.2 0-.3.1.4.3.4.7.8.9h-.1c.1.1 0 .2.2.1h-.1c.2-.3.7-.1.8-.1-.6.2.1.4-.7.6.1 0 .2 0 .3-.1 0 .1 0 .1-.2.2.2.2.4 0 .5.2-.1.1-.1 0-.3.1.2 0 .5 0 .5.2-.1 0-.1.1-.1 0 .2.3.8.3.8.7-.4.1 0 .2-.4.4l.2.1.1-.2c.1.2.4.2.4.4h-.2l.2.3v-.2c.3.1.4-.3.4 0-.1 0 .1.2 0 .4.2 0 .3 0 .3.2-.1.1-.4.2-.4.3.3-.1.3.3.7.3-.1 0-.2.1-.3.1l.3-.1c0 .1 0 .1-.2.2.1.2.4-.3.3.1h-.1c.1.3.5.4.5.7-.3.3-.2-.2-.4.1.3.3.8.5 1 .9v-.1c.5-.2-.1.4.3.4-.1 0-.3.1-.2.1.1.3.4.4.8.7h-.1c0 .2.2.4.2.6.1 0 .2.1.3-.1-.4.9.9.7.6 1.4 0 0-.2-.1-.1 0l.3.3c.2-.2.1-.1.2-.3.1 0 .3 0 .3.1-.2-.1-.3.2-.4.3.1 0 .1-.1.2-.1-.2.4.4-.2.3.2l-.1.1c.1.1.3.1.3.2-.2.2-.2 0-.4.1.1.1.6 0 .5.3-.1 0-.2-.1-.3-.1-.2.3-.1.3-.1.4v.3-.1c.7-.2.3.3.9.3-.5 0-.2.1-.5.2 0 .1-.1.2-.1.3.3 0 0 .3.4.3-.1.1.1.1-.2.2.2.1.1-.1.2-.2.4 0 0 .7.6.8.3.2.6.1.9.2-.1.2-.3.1-.3.1 0 .2.1.3.2.4-.1 0-.1.1-.2.2.1.1.3-.1.3.1-.1 0-.3.1-.4.1.2.1.4.1.5.2-.1.1-.3.1-.4.1.2.1.4.3.6.2v-.1s-.2.2-.2.1c-.3 0 0-.2 0-.3l.1.1c.4-.4-.3-.3-.4-.5l.4-.1h-.4c.1-.1.2-.2.4-.2.1-.2-.2 0-.1-.3h.1l-.2-.1c.1 0 .2-.2.2-.1.1-.4-.5-.2-.3-.5-.3-.2-.3.1-.7.1l.5-.6-.3.1c0-.1 0-.1.1-.2-.3 0-.1.1-.3.1.1-.3-.4-.4 0-.7-.2.1-.1.2-.3.2.4-.3-.2-.2-.1-.4.3-.1.2.1.3-.2-.4.2-.1-.3-.2-.4-.3.2-.3-.2-.5-.3.1-.1-.1-.5-.1-.8h.1c-.3.2-.4-.1-.6-.2.1-.1.3-.1.4-.1V21h-.3l.3-.1c-.1-.2-.5-.2-.5-.5-.2.1-.5.6-.8.4.1-.1.3-.2.4-.2 0 0-.1 0-.1-.1h.3c0-.2-.2 0-.2 0 .2-.1.1-.1.2-.2 0 0 0 .1.1.1 0-.1 0-.3.1-.4-.1.1-.2.1-.3.1-.1-.2.2-.2.2-.3-.1 0-.1-.2-.3 0 0-.1.1-.1.1-.2-.2 0-.3-.4-.5-.1-.4-.2-.3-.7-.6-1l.1-.1c-.2-.1-.3-.4-.6-.4 0-.1.1-.2.2-.3-.2-.1-.3-.1-.2-.3.2 0 .1-.1.2.1 0-.2.1-.4-.3-.4.3-.1.2-.3.1-.4l-.1.2c-.1-.1-.1-.2-.2-.3l.3-.1c.1-.6-1-.3-.6-.9-.3 0 0 .3-.3.3-.1-.2.2-.6.2-.7 0-.3-.5 0-.6-.3-.1.1-.3.3-.5.2-.1-.2.3-.5.4-.4v.1c.1 0 .2.1.2-.1h-.1c0-.1-.1-.4.1-.4-.2-.1-.2 0-.2.2 0-.3-.2-.3-.3-.6 0 .1-.1.2-.2.1-.1-.4-.3 0-.5-.2.1-.2.4-.2.1-.3 0-.2.2-.2.4-.2-.3-.1-.1-.5-.2-.6l.1.1c-.1 0-.1-.1-.2-.1l-.2.2v-.2c-.2 0-.3.3-.6.2 0-.1-.3-.2 0-.4.1.3.2-.2.4 0-.1 0-.1-.1-.1-.2h.1c.1-.4-.4.1-.5-.2.2-.1.2-.2.2-.3.1.1-.2.2-.4.2 0-.2-.2-.1-.2-.2v.1c-.2.1-.2 0-.3-.1.1-.1.1.1.2 0-.3 0 .1-.5-.2-.5 0-.1.3-.2.3-.3-.3-.1.1-.4-.2-.5-.2.2-.1.2-.4.1l.4.3h-.4c.1.1.3.1.3.2-.2 0-.2 0-.3.1.2-.3-.4-.2-.3-.5l.5-.3c.1-.4-.5-.3-.6-.7v.2c-.2.1-.2-.2-.3-.2.2-.1.2-.2.3-.3-.1.1-.1-.2-.5-.1l.1-.3c-.1-.3-.7 0-.8-.3.2 0 .3-.2.5-.1-.1-.1-.1-.2-.2-.1.1-.1-.4-.1-.3-.3-.1 0-.3.1-.3 0 0 0 .1 0 .1-.1-.1.1-.2-.1-.3.1.4-.6-.5-.7-.2-1.2l-.5-.5c.1 0 .1-.1.1 0 0-.3-.6.2-.6-.2.2-.3.2 0 .3-.1.5-.4-.3-.3-.1-.7h.1c.1-.3-.4-.2-.5-.4 0 0 .1 0 .1-.1-.3 0-.6-.1-.9-.4.3-.1.2 0 .4-.2-.1-.1-.3.2-.5.1.1-.1.1-.3.3-.5l.1.2c.2-.3-.2-.2-.2-.4l.1-.1-.2-.2c-.1 0-.1-.1-.2-.1-.2 0-.3-.1-.4-.3l-.1.1c-.4.1 0-.4-.3-.3l.2-.5c-.2-.1-.5-.1-.7-.2.2-.3.4-.1.7-.1-.1-.2-.4-.5-.5-.4.1 0 .1 0 .2.1-.2.2-.4.2-.6 0 .1-.4 0-.8-.2-1.1-.1-.2-.2-.3-.2-.5 0 0 0-.1-.1-.1 0-.1-.1-.1-.1-.2-.1.4-.3.8-.6 1.1-.3.3-.5.6-.7.9.5.4-.1.2.2.8.2.3.2.3.1.3-.2 0-.3.1-.5.2-.2 0 0-.3-.1-.4-.3.4-.3 0-.6.2.2.1.2.3-.1.5.1-.1.3-.1.4-.2 0 .4-.2.4-.3.4-.2 0-.3 0-.3.2l-.1-.2c0 .2-.4.6 0 1-.1 0-.2-.1-.2-.1-.3.3-.1 1.1-.5 1.3l-.1-.1c0 .1.2.3 0 .3l-.1-.1c0 .1.1.3 0 .4l-.1-.2c-.4.3 0 .8-.1 1.2-.3-.2-.6-.1-.8.1-.3.4-.2.9-.3 1.4-.6 0-.7.7-1.2 1 .1 0 .3.2.3.3-.1 0 .1.4-.2.2-.4-.1-.4.1-.5.3l.4.3c-.9 0-.4 1.2-1.2 1v.4l-.2-.2c-.2.2-.4.4-.5.7l-.1-.2c-.1.2.5.7.4.9l-.4-.2c-.2.3-.7.4-.6 1 0 0-.1-.1-.1-.2-.1.1-.6.4-.1.7-.3-.2-.3.3-.2.6l-.2-.2c.2.3.3.4.2.7-.1 0-.2-.1-.1-.1-.2.1.1.3-.1.4l-.1-.2c-.1.1 0 .2.1.4 0 .2-.3.3-.5.1.1.1.2.3.1.4-.1 0-.1-.1-.1-.1-.3.2 0 .6-.4.6 0 0-.1-.1-.2-.1.2-.2.3-.4.3-.3-.2-.1-.4 0-.6-.3.1.2.2.7 0 .8h-.1s-.1.1 0 .1c-.1 0-.1 0-.2.1-.2-.1-.2.1-.3.2.2.2.1.2.4.3v-.1-.1l.1-.2c.1.2.1.3-.1.3.1.1.2.3.3.4-.4-.1-.7 0-1-.1-.1.4-.4.7-.1 1.1 0 .1-.2 0-.3 0v-.2c0 .2-.3.5 0 .7-.3.1-.2-.3-.3 0l-.1-.1c-.8.2.2 1.4-.9 1.5h.2c-.7.4-.7 1.5-1.6 1.8-.2.1 0 .3 0 .5l-.3-.1.1.4c0 .4-.9 0-.8.6l.2.1c-.1.1-.2.4-.4.3 0 0 .1.2 0 .1l-.1-.1v.5c-.3.2-.5-.4-.7-.1 0 .2.1.6.2.7.1-.1.2 0 .3 0v.2c.3.3.7.7 1.1.6l-.1-.4.2.1-.1.2c.2 0 .1-.1.1-.3.1.1.2.1.3.1l-.2-.5c.2.1.2.3.4.2-.1-.2-.4-.2-.4-.4.2 0 .4.2.3 0 .1 0 .1.1.2.2 0-.2.2-.3 0-.5.3.1.2-.4.5-.1-.1-.1-.1-.3-.1-.5.3.5.3-.3.7.1-.3-.4.2-.6.1-.9 0 0 .1.1 0 .1.1-.1.3 0 .4-.1-.3-.3-.2-.5-.3-.7.4.1.3.4.6.5-.3-.2-.1-.4-.3-.6.2 0 .3 0 .5.1-.4-.3 0-.2-.2-.4.3 0 .4.2.4 0 .2-.3.2 0 .2 0zm2.5-4.8v.1-.1zm.2-.4s-.1.1-.1.2c-.1 0-.2-.1-.1-.1 0-.1.1-.1.2-.1zm-2.1-.4c0-.1.1-.1.1 0 0 0 0 .1-.1 0l.1.1s-.1 0-.1-.1z"/><path class="st0" d="M136.9 17.9c0 .1 0 .1 0 0 .1.1.1.1 0 0zm22.7 1.3z"/><path class="st0" d="M142.8 13.2L142.7 13.1 142.7 13.2z"/><path class="st0" d="M160.1 21.8c-.1 0-.1.1 0 0-.1.1 0 0 0 0zm.5.9v0zm.3.8s.1 0 .1-.1l-.1.1zm-7.2-10.8c-.1 0 0 0 0 0zm2.6 2.9h-.2c.1.1.1.1.2 0z"/><path class="st0" d="M151.2 9.3L151.2 9.3 151.1 9.2z"/><path class="st0" d="M156.1 15.4c0 .1 0 .1.1.2-.1-.1-.1-.1-.1-.2zm6.6 11.2zm0 0c.1 0 0 0 0 0zm.2 0h-.1s0 .1.1 0zm-.7-1c-.1 0 0 0 0 0zm-.2-.3c0 .1-.1.3 0 .3h.1c-.1.1.1-.3-.1-.3zm.3-1.8l.1.3c.1-.1.2-.2.2-.1.2-.5-.1.1-.3-.2zm-.3-.8c.1.1.1-.1.2-.1-.1 0-.2-.1-.2.1zm-3.3-5.2l.2-.1c0-.1 0 0-.2.1z"/><path class="st0" d="M157 17.2L156.9 17.4 157.2 17.3z"/><path class="st0" d="M158.2 15.6L158.2 15.7 158.1 15.5z"/><path class="st0" d="M152.6 6.9l-.2.2c0 .1.4-.1.2-.2zm-2.8-3.8c.1-.2 0-.5-.1-.4.1.2.1.4.1.4z"/><path class="st0" d="M141.3 10.8L141.3 10.7 141.3 10.9z"/></g><g><path d="M18.5 201.9c.4-.4.8-.6 1.2-.6.4 0 .8.1 1 .3.3.2.5.5.5.9.1.4 0 .8-.3 1.3-.7 1-1.6 1.8-2.6 2.3-1.1.5-2.1.8-3.2.7s-2.1-.3-3.2-.9c-1-.6-1.8-1.4-2.4-2.6-.4-.6-.6-1.3-.9-2-.2-.7-.4-1.5-.4-2.2-.1-1.2 0-2.4.4-3.7.3-1.3.8-2.4 1.6-3.4.7-1 1.6-1.8 2.7-2.3 1.1-.6 2.3-.7 3.7-.5.7.1 1.3.3 1.9.6.6.3 1.2.6 1.7 1 .3.4.5.7.6 1.1 0 .4 0 .7-.2 1-.2.3-.4.5-.8.6-.3.1-.8.1-1.2-.1-.9-.7-1.8-1.1-2.6-1.2-.8-.1-1.5.1-2.1.5s-1.1.9-1.6 1.7c-.4.7-.7 1.5-.9 2.4-.2.9-.2 1.7-.1 2.7.1.9.4 1.7.8 2.4s.9 1.1 1.4 1.4c.6.3 1.1.5 1.7.4.6 0 1.2-.2 1.7-.5.7-.2 1.2-.7 1.6-1.3zm7.1-6.1c.2-.8.4-1.6.7-2.5.3-.8.7-1.6 1.1-2.2.5-.7 1-1.3 1.7-1.8s1.4-1 2.2-1.3c1.4-.5 2.7-.6 3.8-.2 1.1.4 2.1 1.1 2.9 2 .8.9 1.4 2 1.7 3.3.4 1.3.5 2.5.3 3.8-.2 1.5-.7 3-1.4 4.3-.8 1.4-1.8 2.5-3.2 3.2-1 .6-2 .8-3 .9-1 0-1.9-.2-2.8-.6-.8-.4-1.6-1-2.3-1.8-.7-.8-1.1-1.7-1.5-2.7-.2-.7-.3-1.3-.4-2 0-.6-.1-1.3 0-2l.2-.4zm3 .5v1.5c0 .4.1.9.2 1.5.2.7.4 1.2.9 1.7.4.5.9.8 1.4 1.1.5.2 1.1.3 1.7.2.6-.1 1.2-.4 1.8-.8.8-.6 1.3-1.3 1.7-2.2.4-.9.6-1.8.8-2.7.1-.8 0-1.6-.2-2.4-.2-.8-.6-1.5-1.1-2.1-.5-.6-1.1-1-1.8-1.2-.7-.2-1.5-.1-2.4.4-.9.5-1.6 1.3-2.1 2.2-.4.8-.7 1.8-.9 2.8zm31.3 4.5c-.3.3-.6.5-1 .6-.3 0-.7 0-1-.3-.3-.2-.6-.6-.7-1.1-.1-1.1-.3-2.3-.5-3.4s-.3-2.3-.5-3.4c-.1-.8-.2-1.6-.3-2.5-.1-.8-.3-1.6-.5-2.4-.2-.3-.5-.5-.7-.6s-.5-.1-.9 0c-.8.1-1.6.4-2.4.9-.8.5-1.3 1.2-1.7 1.9-.2.5-.4.8-.5 1.1-.1.3-.2.7-.2 1.3.2 1.3.3 2.5.5 3.8s.3 2.5.5 3.8c.1.6-.1 1-.3 1.3-.3.3-.6.5-1 .6-.3 0-.7 0-1-.3-.3-.2-.6-.6-.7-1.1-.2-1.2-.3-2.3-.4-3.5-.1-1.1-.3-2.2-.4-3.3-.2-1.1-.3-2.2-.5-3.3-.1-1.1-.3-2.3-.5-3.5.1-.5.2-.9.4-1.2.2-.3.5-.4.9-.5.3 0 .6 0 1 .2.3.2.6.5.7 1v.3c.6-.7 1.4-1.3 2.2-1.8.9-.5 1.7-.8 2.7-.9s1.8 0 2.7.3c.9.3 1.6.9 2.2 1.8.2.3.4.7.5 1.2l.3 1.5c.1.5.1 1.1.2 1.6 0 .6.1 1.1.2 1.6l.6 4.4.3 2.5c.2.6.1 1.1-.2 1.4zm4.9-14.7c-.3-.3-.5-.6-.5-.9s.1-.7.3-1.1c.2-.4.6-.6 1.2-.7l2.1-.3-.8-5.9c.1-.5.2-.9.4-1.2.2-.3.5-.4.9-.5.3 0 .6 0 1 .2.3.2.6.5.7 1l.8 6 3.6-.5c.5.1.9.2 1.1.5.3.3.4.5.5.9 0 .3 0 .7-.2 1-.2.3-.6.6-1 .7l-3.5.4c.2 1.9.5 3.9.8 5.9.3 2 .6 4 .8 5.9.1.6 0 1-.3 1.3-.3.3-.6.5-1 .6s-.7 0-1-.3c-.3-.2-.6-.6-.7-1.1-.3-1.9-.5-3.9-.8-5.9-.3-2-.5-4-.8-5.9l-2.2.3c-.7 0-1.1-.1-1.4-.4zm30.4 8.3c.2.4.2.7.2 1 0 .3-.1.6-.3.8-.2.2-.4.4-.8.5-.3.1-.7.1-1.1-.1-.3-.2-.5-.4-.7-.6-.2-.2-.4-.5-.6-.7-.4.5-.9.9-1.4 1.4-.5.4-1.1.7-1.6.8-1 .2-2 .3-2.9.4-1 .1-1.9-.1-2.9-.6-.8-.4-1.4-1-1.9-1.6-.5-.7-.8-1.4-1-2.2-.2-.8-.3-1.6-.3-2.5 0-.9.1-1.7.3-2.5.1-.4.2-.7.4-1.1.2-.3.3-.7.5-1.1.2-.5.5-1 .7-1.5.3-.5.6-.9 1-1.3.3-.3.6-.5.9-.8.3-.3.6-.5.9-.8.2-.2.5-.4 1-.6s.9-.4 1.4-.6c.5-.2 1-.3 1.6-.4.5-.1 1-.1 1.4 0 .3-.1.7-.1 1.1.1.4.2.7.5.9 1l.6 5.1c.2 1.7.5 3.4 1 5 .1.2.2.5.4.8.2.3.4.6.6.8.2.3.4.5.6.8-.1.3 0 .4 0 .5zm-5.1-2l.1-.1.1-.1c-.5-1.4-.9-3-1.1-4.6-.2-1.6-.4-3.1-.5-4.4-.2 0-.5.1-.7.2-.3.1-.5.2-.8.3-.2.1-.5.2-.7.3-.2.1-.3.2-.4.2-.7.4-1.3 1-1.7 1.6-.4.6-.8 1.3-1 2-.2.7-.4 1.5-.5 2.3-.1.8-.1 1.6 0 2.3l.3.6.3.6c.1.1.3.2.4.4.2.1.3.2.5.4.2.1.5.1.7.2.2 0 .5.1.7.1.4-.1.8-.1 1.2-.1.4 0 .8-.1 1.2-.3.3-.3.7-.6 1-.9.3-.3.6-.6.9-1zm19.3-2.3c.4-.4.8-.6 1.2-.6.4 0 .8.1 1 .3.3.2.5.5.5.9.1.4 0 .8-.3 1.3-.7 1-1.6 1.8-2.6 2.3-1.1.5-2.1.8-3.2.7-1.1 0-2.1-.3-3.2-.9s-1.8-1.4-2.4-2.6c-.4-.6-.6-1.3-.9-2-.2-.7-.4-1.5-.4-2.2-.1-1.2 0-2.4.4-3.7.3-1.3.8-2.4 1.6-3.4s1.6-1.8 2.7-2.3c1.1-.6 2.3-.7 3.7-.5.7.1 1.3.3 1.9.6.6.3 1.2.6 1.7 1 .3.4.5.7.6 1.1 0 .4 0 .7-.2 1s-.4.5-.8.6c-.3.1-.8.1-1.2-.1-.9-.7-1.8-1.1-2.6-1.2-.8-.1-1.5.1-2.1.5-.6.4-1.1.9-1.6 1.7-.4.7-.7 1.5-.9 2.4-.2.9-.2 1.7-.1 2.7.1.9.4 1.7.8 2.4s.9 1.1 1.4 1.4c.6.3 1.1.5 1.7.4.6 0 1.2-.2 1.7-.5.7-.3 1.1-.7 1.6-1.3zm8-10.8c-.3-.3-.5-.6-.5-.9s.1-.7.3-1.1c.2-.4.6-.6 1.2-.7l2.1-.3-.8-5.9c.1-.5.2-.9.4-1.2.2-.3.5-.4.9-.5.3 0 .6 0 1 .2.3.2.6.5.7 1l.8 6 3.6-.5c.5.1.9.2 1.1.5.3.3.4.5.5.9 0 .3 0 .7-.2 1-.2.3-.6.6-1 .7l-3.5.4c.2 1.9.5 3.9.8 5.9.3 2 .6 4 .8 5.9.1.6 0 1-.3 1.3-.3.3-.6.5-1 .6s-.7 0-1-.3c-.3-.2-.6-.6-.7-1.1-.3-1.9-.5-3.9-.8-5.9-.3-2-.5-4-.8-5.9l-2.2.3c-.7 0-1.1-.2-1.4-.4z"/></g></svg>